<svg width="177" height="123" viewBox="0 0 177 123" fill="none" xmlns="http://www.w3.org/2000/svg">
<mask id="mask0_456_253" style="mask-type:alpha" maskUnits="userSpaceOnUse" x="0" y="0" width="177" height="123">
<rect width="177" height="122.927" fill="#AFDBC5"/>
</mask>
<g mask="url(#mask0_456_253)">
<path d="M176.998 -3.71509H-6.69287V178.367H176.998V-3.71509Z" fill="#4C53B4"/>
<path d="M166.119 16.0189C164.854 14.7571 163.133 14.2017 161.575 14.5331C162.567 13.4096 162.712 11.5961 161.88 10.2942C161.033 8.96867 159.262 8.26584 157.67 8.62454C156.364 8.91769 155.263 9.78986 154.69 10.9352C154.824 10.0029 154.815 8.86124 154.361 7.74508C153.81 6.39039 152.668 5.37802 151.376 5.10308C149.802 4.76805 147.971 5.57103 146.92 7.05863C146.246 8.01274 145.796 9.23451 145.632 10.5018C145.382 9.62963 144.797 8.82847 143.992 8.34777C142.796 7.63401 141.178 7.61216 139.868 8.28951C138.648 8.92133 137.693 10.1431 137.313 11.5615C136.988 12.7778 137.065 14.1034 137.535 15.4144C136.402 14.4493 135.212 13.5244 133.615 13.8048C132.546 13.9923 131.663 14.6442 131.192 15.5928C130.724 16.536 130.742 17.6194 131.24 18.5662C132.081 20.1649 133.803 21.1627 136.499 21.6161C138.366 21.9293 140.287 21.9493 142.144 21.9675C142.489 21.9711 142.833 21.9748 143.178 21.9802C143.45 21.9839 143.691 21.9893 143.913 21.9966C145.436 22.044 146.96 22.0749 148.443 22.0877C149.08 22.0931 149.714 22.0968 150.349 22.0968C152.655 22.0968 154.936 22.0567 157.157 21.9784C157.706 21.9584 158.265 21.9293 158.805 21.9019C159.602 21.8601 160.425 21.8182 161.235 21.8054C162.598 21.7818 163.816 21.7217 164.925 21.2301C165.884 20.804 167.166 20.0738 167.253 18.6518C167.308 17.7505 166.895 16.7909 166.119 16.0189Z" fill="#93A1ED"/>
<path d="M13.8676 81.6613C13.2136 81.0113 12.3264 80.7236 11.5237 80.8948C12.0362 80.3139 12.1097 79.3799 11.6817 78.708C11.2445 78.0233 10.3315 77.661 9.51043 77.8467C8.83629 77.9979 8.26868 78.4476 7.97294 79.0394C8.04274 78.5587 8.03723 77.9687 7.80395 77.3933C7.51923 76.6941 6.92958 76.1716 6.26462 76.0295C5.45271 75.8566 4.5067 76.2717 3.96481 77.0383C3.61764 77.5299 3.38435 78.1617 3.29985 78.8154C3.17127 78.3657 2.86818 77.9523 2.45304 77.7047C1.83584 77.3369 1.00188 77.326 0.3259 77.6756C-0.304159 78.0015 -0.79645 78.6315 -0.992999 79.3635C-1.16199 79.9898 -1.12158 80.6745 -0.877274 81.3518C-1.46141 80.8547 -2.07677 80.3758 -2.89971 80.5215C-3.45078 80.618 -3.90633 80.9549 -4.15064 81.4447C-4.39128 81.9308 -4.38393 82.4898 -4.12676 82.9778C-3.69325 83.8026 -2.80603 84.3179 -1.41365 84.551C-0.451112 84.713 0.540818 84.7221 1.49968 84.7331C1.67786 84.7349 1.85604 84.7367 2.03239 84.7385C2.17383 84.7403 2.2969 84.744 2.41079 84.7476C3.19699 84.7713 3.98318 84.7877 4.74733 84.795C5.07614 84.7986 5.40311 84.8004 5.73008 84.8004C6.91856 84.8004 8.09602 84.7804 9.24225 84.7385C9.52513 84.7276 9.81352 84.713 10.0927 84.6985C10.5042 84.6766 10.9285 84.6548 11.3455 84.6475C12.049 84.6347 12.6773 84.6056 13.2485 84.3507C13.7427 84.1304 14.4058 83.7535 14.4499 83.0215C14.4793 82.5554 14.2662 82.0601 13.8676 81.6613Z" fill="#93A1ED"/>
<path d="M175.163 90.4175C174.534 89.7929 173.682 89.5162 172.91 89.6818C173.403 89.1247 173.474 88.227 173.061 87.5806C172.642 86.9233 171.764 86.5755 170.976 86.7521C170.328 86.8978 169.784 87.3294 169.499 87.8974C169.565 87.435 169.562 86.8687 169.336 86.317C169.064 85.6451 168.496 85.1444 167.857 85.0078C167.078 84.8421 166.169 85.239 165.649 85.9765C165.315 86.4499 165.093 87.0544 165.01 87.6826C164.887 87.2511 164.597 86.8523 164.198 86.6156C163.607 86.2623 162.804 86.2514 162.155 86.5865C161.551 86.8996 161.077 87.506 160.89 88.207C160.728 88.8097 160.767 89.467 161 90.117C160.438 89.64 159.848 89.1811 159.058 89.3195C158.529 89.4124 158.09 89.7347 157.857 90.2062C157.626 90.6742 157.633 91.2095 157.881 91.6793C158.298 92.4713 159.15 92.9666 160.487 93.1906C161.411 93.3453 162.365 93.3563 163.285 93.3654C163.456 93.3672 163.627 93.369 163.798 93.3708C163.933 93.3727 164.051 93.3763 164.161 93.3781C164.916 93.4018 165.671 93.4164 166.406 93.4236C166.722 93.4273 167.036 93.4273 167.35 93.4273C168.493 93.4273 169.622 93.4072 170.723 93.369C170.995 93.3599 171.272 93.3453 171.54 93.3308C171.935 93.3107 172.343 93.2889 172.743 93.2834C173.419 93.2725 174.022 93.2416 174.571 92.9976C175.045 92.7864 175.682 92.424 175.725 91.7193C175.752 91.2751 175.546 90.8016 175.163 90.4175Z" fill="#93A1ED"/>
<path d="M16.6469 43.6444C15.9801 42.9816 15.0745 42.6885 14.2552 42.8633C14.7769 42.2715 14.8541 41.3174 14.4169 40.6328C13.9723 39.9354 13.0392 39.5658 12.2016 39.7533C11.5146 39.9081 10.9359 40.3669 10.6328 40.9696C10.7026 40.478 10.699 39.8771 10.4602 39.2908C10.1699 38.5789 9.56928 38.0454 8.88962 37.8997C8.06118 37.7231 7.0968 38.1455 6.54389 38.9285C6.18937 39.431 5.95241 40.0738 5.86607 40.7402C5.73565 40.2813 5.42705 39.8589 5.00273 39.6058C4.37451 39.2307 3.52218 39.218 2.83334 39.5749C2.19226 39.9063 1.68895 40.5508 1.48873 41.2974C1.31789 41.9365 1.35831 42.6357 1.60629 43.3258C1.00929 42.8177 0.382908 42.3316 -0.456558 42.4791C-1.01865 42.5774 -1.48339 42.9215 -1.73137 43.4204C-1.97752 43.9157 -1.96833 44.4874 -1.70565 44.9845C-1.26296 45.8257 -0.357365 46.3501 1.06256 46.5905C2.04531 46.7562 3.05561 46.7653 4.03284 46.7762C4.21469 46.778 4.39471 46.7798 4.57657 46.7817C4.71984 46.7835 4.84659 46.7871 4.96415 46.7908C5.76504 46.8163 6.56777 46.8308 7.34846 46.8399C7.68277 46.8436 8.01709 46.8454 8.35141 46.8454C9.56377 46.8454 10.7651 46.8235 11.9334 46.7835C12.2218 46.7726 12.5157 46.758 12.8004 46.7434C13.2192 46.7216 13.6527 46.6997 14.0789 46.6924C14.7953 46.6797 15.4382 46.6487 16.0205 46.3902C16.5238 46.1662 17.1998 45.782 17.2457 45.0337C17.2733 44.5548 17.0547 44.0504 16.6469 43.6444Z" fill="#93A1ED"/>
<path d="M36.9685 125.521C35.5798 124.137 33.6915 123.527 31.9832 123.892C33.0706 122.659 33.2304 120.669 32.3193 119.239C31.3917 117.785 29.4482 117.014 27.7013 117.406C26.2667 117.728 25.0617 118.684 24.4316 119.942C24.5786 118.919 24.5676 117.666 24.0716 116.443C23.4673 114.957 22.2126 113.846 20.7964 113.544C19.0697 113.176 17.0601 114.057 15.9065 115.689C15.1663 116.736 14.674 118.076 14.4921 119.467C14.2184 118.509 13.5755 117.63 12.692 117.104C11.3804 116.321 9.60412 116.297 8.16766 117.04C6.83039 117.732 5.78151 119.074 5.36453 120.63C5.00634 121.965 5.09267 123.42 5.60884 124.858C4.36526 123.8 3.05922 122.784 1.30864 123.092C0.134861 123.298 -0.833189 124.014 -1.34936 125.053C-1.86369 126.087 -1.84349 127.276 -1.29793 128.316C-0.375799 130.07 1.51254 131.164 4.47364 131.663C6.52179 132.007 8.62872 132.029 10.6677 132.049C11.0461 132.052 11.4245 132.056 11.8011 132.062C12.1005 132.065 12.3631 132.072 12.6075 132.08C14.2772 132.131 15.9506 132.165 17.5781 132.18C18.2762 132.187 18.9742 132.189 19.6685 132.189C22.1979 132.189 24.7017 132.145 27.1374 132.058C27.7399 132.036 28.3534 132.005 28.9449 131.974C29.8193 131.929 30.723 131.883 31.6103 131.867C33.1055 131.841 34.4428 131.776 35.6588 131.235C36.7095 130.767 38.1184 129.966 38.2121 128.407C38.2727 127.42 37.819 126.37 36.9685 125.521Z" fill="#93A1ED"/>
<path d="M31.4376 9.91196C30.1995 8.67927 28.5187 8.13485 26.9959 8.45895C27.9658 7.35918 28.1073 5.58752 27.2953 4.31477C26.4687 3.01835 24.7365 2.3319 23.1807 2.6815C21.9022 2.96919 20.8276 3.81951 20.2673 4.94113C20.3978 4.0289 20.3886 2.91274 19.9459 1.82207C19.4077 0.49834 18.289 -0.492185 17.027 -0.759845C15.4896 -1.08759 13.6967 -0.302819 12.6699 1.15201C12.0105 2.08427 11.5714 3.27873 11.4098 4.51688C11.1655 3.66474 10.5924 2.87997 9.80616 2.41202C8.63789 1.71465 7.05448 1.6928 5.77415 2.35557C4.582 2.97283 3.64885 4.16911 3.27596 5.55475C2.95817 6.74374 3.03349 8.04016 3.49455 9.32202C2.3869 8.37884 1.2223 7.47389 -0.337237 7.74883C-1.38244 7.93274 -2.24578 8.57002 -2.70501 9.49682C-3.1624 10.4182 -3.14587 11.4779 -2.65909 12.4028C-1.83615 13.9651 -0.155382 14.9411 2.48242 15.3853C4.30646 15.6931 6.18562 15.7113 8.00048 15.7295C8.33664 15.7331 8.67463 15.7368 9.01078 15.7404C9.27713 15.744 9.51226 15.7495 9.72901 15.7568C11.2169 15.8023 12.7066 15.8333 14.1578 15.846C14.7805 15.8515 15.4014 15.8551 16.0204 15.8551C18.2725 15.8551 20.5043 15.8169 22.6755 15.7386C23.2119 15.7185 23.7593 15.6912 24.2865 15.6639C25.0653 15.6239 25.8699 15.582 26.6616 15.5692C27.9934 15.5456 29.1855 15.4873 30.2693 15.0066C31.2061 14.5896 32.4607 13.8759 32.5452 12.4866C32.6003 11.6035 32.1962 10.6658 31.4376 9.91196Z" fill="#93A1ED"/>
</g>
</svg>
