<svg width="177" height="224" viewBox="0 0 177 224" fill="none" xmlns="http://www.w3.org/2000/svg">
<mask id="mask0_450_478" style="mask-type:alpha" maskUnits="userSpaceOnUse" x="0" y="0" width="177" height="224">
<rect width="177" height="224" fill="#AFDBC5"/>
</mask>
<g mask="url(#mask0_450_478)">
<path d="M176.998 -3.71509H-6.69299V224H176.998V-3.71509Z" fill="#554A96"/>
<path d="M166.119 19.5766C164.854 18.1024 163.133 17.4536 161.575 17.8408C162.567 16.5283 162.712 14.4096 161.88 12.8887C161.033 11.3401 159.262 10.519 157.67 10.9381C156.364 11.2806 155.263 12.2995 154.69 13.6375C154.824 12.5484 154.815 11.2146 154.361 9.91066C153.81 8.32804 152.668 7.14533 151.376 6.82412C149.802 6.43272 147.971 7.37081 146.92 9.10871C146.246 10.2234 145.796 11.6507 145.632 13.1312C145.382 12.1123 144.797 11.1763 143.992 10.6148C142.796 9.7809 141.178 9.75537 139.868 10.5467C138.648 11.2848 137.693 12.7122 137.313 14.3692C136.988 15.7902 137.065 17.3388 137.535 18.8703C136.402 17.7429 135.212 16.6623 133.615 16.9899C132.546 17.209 131.663 17.9705 131.192 19.0788C130.724 20.1807 130.742 21.4464 131.24 22.5525C132.081 24.4201 133.803 25.5858 136.499 26.1155C138.366 26.4814 140.287 26.5048 142.144 26.5261C142.489 26.5303 142.833 26.5346 143.178 26.5409C143.45 26.5452 143.691 26.5516 143.913 26.5601C145.436 26.6154 146.96 26.6516 148.443 26.6665C149.08 26.6728 149.714 26.6771 150.349 26.6771C152.655 26.6771 154.936 26.6303 157.157 26.5388C157.706 26.5154 158.265 26.4814 158.805 26.4495C159.602 26.4006 160.425 26.3516 161.235 26.3367C162.598 26.3091 163.816 26.2389 164.925 25.6645C165.884 25.1668 167.166 24.3138 167.253 22.6525C167.308 21.5995 166.895 20.4785 166.119 19.5766Z" fill="#6F74C5"/>
<path d="M159.305 155.773C158.373 154.689 157.106 154.21 155.96 154.497C156.689 153.531 156.796 151.972 156.184 150.851C155.561 149.711 154.259 149.107 153.087 149.415C152.124 149.668 151.316 150.417 150.894 151.402C150.993 150.6 150.985 149.617 150.651 148.66C150.247 147.497 149.404 146.624 148.454 146.388C147.297 146.099 145.947 146.79 145.175 148.069C144.679 148.89 144.349 149.941 144.227 151.03C144.044 150.279 143.612 149.59 143.021 149.177C142.141 148.564 140.95 148.545 139.986 149.128C139.088 149.671 138.386 150.721 138.105 151.94C137.864 152.985 137.923 154.127 138.268 155.252C137.435 154.423 136.558 153.627 135.385 153.867C134.598 154.029 133.948 154.589 133.601 155.405C133.257 156.216 133.268 157.148 133.636 157.962C134.255 159.336 135.52 160.194 137.506 160.585C138.88 160.855 140.293 160.872 141.661 160.887C141.915 160.889 142.168 160.894 142.422 160.898C142.622 160.902 142.8 160.906 142.964 160.913C144.084 160.953 145.206 160.979 146.298 160.991C146.766 160.996 147.234 161 147.701 161C149.396 161 151.077 160.966 152.71 160.898C153.114 160.881 153.526 160.855 153.923 160.832C154.509 160.796 155.115 160.76 155.71 160.749C156.713 160.73 157.609 160.677 158.425 160.253C159.13 159.887 160.074 159.258 160.137 158.037C160.181 157.262 159.876 156.437 159.305 155.773Z" fill="#93A1ED"/>
<path d="M174.913 53.1798C174.035 52.1588 172.844 51.71 171.764 51.978C172.451 51.0676 172.552 49.6019 171.976 48.5469C171.39 47.4748 170.162 46.9047 169.06 47.194C168.155 47.4322 167.394 48.1363 166.996 49.0638C167.088 48.3086 167.082 47.3854 166.768 46.4814C166.388 45.3859 165.594 44.5669 164.7 44.3435C163.61 44.0713 162.341 44.7222 161.614 45.9262C161.147 46.6983 160.835 47.6875 160.721 48.7128C160.548 48.0065 160.142 47.3578 159.586 46.9706C158.757 46.3941 157.637 46.375 156.729 46.9238C155.884 47.4343 155.223 48.4235 154.96 49.5721C154.734 50.557 154.788 51.6291 155.115 52.6906C154.33 51.9099 153.505 51.1611 152.4 51.3888C151.659 51.5398 151.048 52.0673 150.721 52.8352C150.397 53.5989 150.408 54.4753 150.754 55.2411C151.336 56.5344 152.528 57.3427 154.396 57.7086C155.69 57.9617 157.019 57.9788 158.307 57.9937C158.546 57.9958 158.785 58 159.023 58.0043C159.213 58.0085 159.378 58.0128 159.532 58.017C160.587 58.0553 161.643 58.0809 162.67 58.0915C163.111 58.0958 163.551 58.0979 163.99 58.0979C165.587 58.0979 167.168 58.066 168.706 58.0022C169.086 57.9873 169.474 57.9639 169.847 57.9405C170.398 57.9064 170.969 57.8724 171.529 57.8618C172.473 57.8426 173.316 57.7937 174.084 57.3959C174.747 57.0513 175.636 56.4599 175.697 55.3091C175.736 54.5795 175.449 53.8031 174.913 53.1798Z" fill="#93A1ED"/>
<path d="M13.8676 96.2637C13.2136 95.5043 12.3264 95.1682 11.5237 95.3681C12.0362 94.6895 12.1097 93.5983 11.6817 92.8134C11.2445 92.0136 10.3315 91.5902 9.51043 91.8072C8.83629 91.9838 8.26868 92.5092 7.97294 93.2005C8.04274 92.6389 8.03723 91.9497 7.80395 91.2776C7.51923 90.4607 6.92958 89.8502 6.26462 89.6843C5.45271 89.4822 4.5067 89.9672 3.96481 90.8628C3.61764 91.4371 3.38435 92.1752 3.29985 92.9389C3.17127 92.4135 2.86818 91.9306 2.45304 91.6413C1.83584 91.2116 1.00188 91.1988 0.3259 91.6073C-0.304159 91.988 -0.79645 92.724 -0.992999 93.5792C-1.16199 94.3109 -1.12158 95.1107 -0.877274 95.902C-1.46141 95.3213 -2.07677 94.7619 -2.89971 94.932C-3.45078 95.0448 -3.90633 95.4383 -4.15064 96.0105C-4.39128 96.5785 -4.38393 97.2315 -4.12676 97.8016C-3.69325 98.7652 -2.80603 99.3672 -1.41365 99.6395C-0.451112 99.8288 0.540818 99.8395 1.49968 99.8522C1.67786 99.8543 1.85604 99.8565 2.03239 99.8586C2.17383 99.8607 2.2969 99.865 2.41079 99.8692C3.19699 99.8969 3.98318 99.916 4.74733 99.9245C5.07614 99.9288 5.40311 99.9309 5.73008 99.9309C6.91856 99.9309 8.09602 99.9075 9.24225 99.8586C9.52513 99.8458 9.81352 99.8288 10.0927 99.8118C10.5042 99.7863 10.9285 99.7607 11.3455 99.7522C12.049 99.7373 12.6773 99.7033 13.2485 99.4055C13.7427 99.1481 14.4058 98.7078 14.4499 97.8527C14.4793 97.3081 14.2662 96.7295 13.8676 96.2637Z" fill="#93A1ED"/>
<path d="M175.163 106.493C174.535 105.763 173.682 105.44 172.911 105.634C173.403 104.983 173.475 103.934 173.061 103.179C172.643 102.411 171.764 102.005 170.976 102.211C170.328 102.381 169.784 102.885 169.5 103.549C169.566 103.009 169.562 102.347 169.336 101.703C169.064 100.918 168.497 100.333 167.857 100.173C167.079 99.9796 166.169 100.443 165.649 101.305C165.315 101.858 165.093 102.564 165.01 103.298C164.887 102.794 164.597 102.328 164.198 102.052C163.607 101.639 162.804 101.626 162.156 102.017C161.551 102.383 161.077 103.092 160.89 103.911C160.728 104.615 160.767 105.383 161 106.142C160.438 105.585 159.848 105.049 159.059 105.21C158.53 105.319 158.091 105.695 157.857 106.246C157.626 106.793 157.633 107.418 157.881 107.967C158.298 108.893 159.15 109.471 160.488 109.733C161.412 109.914 162.365 109.926 163.285 109.937C163.456 109.939 163.627 109.941 163.798 109.943C163.934 109.945 164.051 109.95 164.162 109.952C164.916 109.98 165.671 109.997 166.406 110.005C166.722 110.009 167.036 110.009 167.35 110.009C168.493 110.009 169.623 109.986 170.723 109.941C170.995 109.931 171.272 109.914 171.54 109.897C171.935 109.873 172.343 109.848 172.744 109.841C173.42 109.828 174.022 109.792 174.571 109.507C175.045 109.261 175.683 108.837 175.725 108.014C175.752 107.495 175.547 106.942 175.163 106.493Z" fill="#93A1ED"/>
<path d="M16.647 51.8502C15.9802 51.0759 15.0746 50.7334 14.2553 50.9376C14.777 50.2463 14.8542 49.1316 14.417 48.3318C13.9725 47.5171 13.0393 47.0853 12.2017 47.3044C11.5147 47.4852 10.9361 48.0213 10.633 48.7254C10.7028 48.151 10.6991 47.4491 10.4603 46.7641C10.1701 45.9324 9.5694 45.3091 8.88975 45.1389C8.0613 44.9326 7.09692 45.4261 6.54402 46.3408C6.18949 46.9279 5.95253 47.6788 5.8662 48.4573C5.73578 47.9213 5.42718 47.4278 5.00285 47.1321C4.37463 46.6939 3.5223 46.679 2.83346 47.0959C2.19238 47.4831 1.68907 48.2361 1.48885 49.1083C1.31802 49.8549 1.35843 50.6717 1.60641 51.4779C1.00942 50.8844 0.383031 50.3165 -0.456436 50.4888C-1.01853 50.6037 -1.48327 51.0057 -1.73125 51.5885C-1.97739 52.1671 -1.96821 52.8351 -1.70553 53.4158C-1.26284 54.3985 -0.357243 55.0112 1.06269 55.292C2.04543 55.4855 3.05573 55.4962 4.03296 55.5089C4.21482 55.5111 4.39483 55.5132 4.57669 55.5153C4.71997 55.5174 4.84671 55.5217 4.96428 55.5259C5.76517 55.5557 6.5679 55.5727 7.34858 55.5834C7.6829 55.5876 8.01722 55.5898 8.35153 55.5898C9.56389 55.5898 10.7652 55.5642 11.9335 55.5174C12.2219 55.5047 12.5158 55.4877 12.8005 55.4706C13.2193 55.4451 13.6528 55.4196 14.079 55.4111C14.7954 55.3962 15.4383 55.36 16.0206 55.058C16.5239 54.7963 17.1999 54.3475 17.2458 53.4732C17.2734 52.9138 17.0548 52.3245 16.647 51.8502Z" fill="#93A1ED"/>
<path d="M36.9685 147.503C35.5798 145.886 33.6915 145.174 31.9832 145.599C33.0706 144.159 33.2304 141.834 32.3193 140.164C31.3917 138.465 29.4482 137.565 27.7013 138.022C26.2667 138.399 25.0617 139.516 24.4316 140.985C24.5786 139.79 24.5676 138.326 24.0716 136.897C23.4673 135.161 22.2126 133.864 20.7964 133.511C19.0697 133.081 17.0601 134.11 15.9065 136.016C15.1663 137.239 14.674 138.805 14.4921 140.43C14.2184 139.311 13.5755 138.284 12.692 137.669C11.3804 136.754 9.60412 136.727 8.16766 137.595C6.83039 138.403 5.78151 139.971 5.36454 141.79C5.00634 143.349 5.09267 145.048 5.60884 146.729C4.36526 145.493 3.05922 144.306 1.30864 144.665C0.134861 144.906 -0.833189 145.742 -1.34936 146.956C-1.86369 148.165 -1.84349 149.554 -1.29793 150.768C-0.375799 152.817 1.51254 154.095 4.47364 154.678C6.52179 155.08 8.62872 155.106 10.6677 155.129C11.0461 155.133 11.4245 155.138 11.8011 155.144C12.1005 155.148 12.3632 155.157 12.6075 155.165C14.2772 155.225 15.9506 155.265 17.5781 155.282C18.2762 155.291 18.9742 155.293 19.6685 155.293C22.1979 155.293 24.7017 155.242 27.1374 155.14C27.7399 155.114 28.3534 155.078 28.9449 155.042C29.8193 154.989 30.723 154.935 31.6103 154.916C33.1055 154.887 34.4428 154.81 35.6588 154.178C36.7095 153.632 38.1184 152.696 38.2121 150.875C38.2727 149.722 37.819 148.494 36.9685 147.503Z" fill="#93A1ED"/>
<path d="M31.4376 12.4421C30.1995 11.002 28.5187 10.366 26.9959 10.7446C27.9658 9.45982 28.1073 7.39007 27.2953 5.90317C26.4687 4.38862 24.7365 3.58668 23.1807 3.99509C21.9022 4.33119 20.8276 5.32458 20.2673 6.63492C20.3978 5.56921 20.3886 4.26525 19.9459 2.99107C19.4077 1.44461 18.289 0.287421 17.027 -0.0252739C15.4896 -0.408166 13.6967 0.508648 12.6699 2.20826C12.0105 3.29738 11.5714 4.69281 11.4098 6.13929C11.1655 5.14377 10.5924 4.22696 9.80616 3.68027C8.63789 2.86556 7.05448 2.84004 5.77415 3.61433C4.582 4.33544 3.64885 5.733 3.27596 7.35178C2.95817 8.74083 3.03349 10.2554 3.49455 11.7529C2.3869 10.651 1.2223 9.59383 -0.337237 9.91503C-1.38244 10.1299 -2.24578 10.8744 -2.70501 11.9571C-3.1624 13.0335 -3.14587 14.2715 -2.65909 15.3521C-1.83615 17.1772 -0.155382 18.3174 2.48242 18.8364C4.30646 19.1959 6.18562 19.2172 8.00048 19.2385C8.33664 19.2427 8.67463 19.247 9.01078 19.2512C9.27713 19.2555 9.51226 19.2619 9.72901 19.2704C11.2169 19.3235 12.7066 19.3597 14.1578 19.3746C14.7805 19.381 15.4014 19.3852 16.0204 19.3852C18.2725 19.3852 20.5043 19.3406 22.6755 19.2491C23.2119 19.2257 23.7593 19.1938 24.2865 19.1619C25.0653 19.1151 25.8699 19.0662 26.6616 19.0513C27.9934 19.0236 29.1855 18.9555 30.2693 18.394C31.2061 17.9068 32.4607 17.073 32.5452 15.45C32.6003 14.4183 32.1962 13.3228 31.4376 12.4421Z" fill="#6F74C5"/>
</g>
</svg>
