<svg width="189" height="129" viewBox="0 0 189 129" fill="none" xmlns="http://www.w3.org/2000/svg">
<path d="M189 0H0V129H189V0Z" fill="#3E476E"/>
<path d="M179.78 41.3995C178.759 40.0241 177.369 39.4188 176.112 39.78C176.912 38.5554 177.03 36.5786 176.358 35.1596C175.674 33.7147 174.245 32.9486 172.959 33.3396C171.905 33.6591 171.016 34.6098 170.554 35.8582C170.662 34.842 170.655 33.5976 170.288 32.3809C169.843 30.9043 168.921 29.8008 167.879 29.5011C166.608 29.1359 165.129 30.0112 164.281 31.6327C163.737 32.6727 163.374 34.0045 163.242 35.3858C163.04 34.4351 162.567 33.5619 161.917 33.0379C160.952 32.2599 159.646 32.2361 158.588 32.9744C157.604 33.6631 156.833 34.9948 156.526 36.5409C156.263 37.8667 156.326 39.3116 156.705 40.7406C155.79 39.6887 154.829 38.6805 153.541 38.9861C152.678 39.1905 151.964 39.9011 151.585 40.9351C151.207 41.9632 151.221 43.1441 151.623 44.1762C152.302 45.9188 153.692 47.0064 155.869 47.5006C157.375 47.842 158.926 47.8638 160.426 47.8836C160.704 47.8876 160.982 47.8916 161.261 47.8975C161.48 47.9015 161.674 47.9075 161.854 47.9154C163.083 47.967 164.314 48.0007 165.51 48.0146C166.025 48.0206 166.537 48.0246 167.05 48.0246C168.911 48.0246 170.752 47.9809 172.545 47.8956C172.989 47.8737 173.439 47.842 173.875 47.8122C174.519 47.7666 175.183 47.7209 175.837 47.707C176.938 47.6812 177.921 47.6157 178.816 47.0798C179.591 46.6154 180.626 45.8195 180.695 44.2695C180.74 43.287 180.406 42.2411 179.78 41.3995Z" fill="#525B81"/>
<path d="M141.878 24.1515C140.857 22.7761 139.467 22.1707 138.21 22.532C139.01 21.3074 139.128 19.3306 138.456 17.9115C137.772 16.4666 136.343 15.7005 135.057 16.0915C134.003 16.4111 133.114 17.3617 132.652 18.6101C132.76 17.594 132.753 16.3495 132.386 15.1329C131.942 13.6563 131.019 12.5528 129.977 12.2531C128.706 11.8879 127.227 12.7631 126.379 14.3847C125.835 15.4247 125.472 16.7564 125.34 18.1378C125.138 17.1871 124.665 16.3138 124.015 15.7898C123.05 15.0118 121.744 14.988 120.686 15.7263C119.702 16.415 118.931 17.7468 118.624 19.2929C118.361 20.6187 118.424 22.0636 118.803 23.4926C117.888 22.4407 116.927 21.4324 115.639 21.7381C114.776 21.9425 114.062 22.653 113.683 23.6871C113.305 24.7152 113.319 25.8961 113.721 26.9281C114.4 28.6707 115.79 29.7584 117.967 30.2525C119.473 30.5939 121.025 30.6158 122.524 30.6356C122.802 30.6396 123.08 30.6435 123.359 30.6495C123.578 30.6535 123.772 30.6594 123.952 30.6674C125.181 30.719 126.412 30.7527 127.609 30.7666C128.123 30.7725 128.635 30.7765 129.148 30.7765C131.009 30.7765 132.851 30.7329 134.643 30.6475C135.087 30.6257 135.538 30.5939 135.973 30.5642C136.617 30.5185 137.281 30.4729 137.935 30.459C139.036 30.4332 140.019 30.3677 140.914 29.8318C141.689 29.3674 142.724 28.5715 142.793 27.0214C142.838 26.039 142.504 24.993 141.878 24.1515Z" fill="#525B81"/>
<path d="M54.7907 31.3506C54.0161 30.3078 52.9626 29.8488 52.0092 30.1227C52.6164 29.1943 52.7052 27.6955 52.1959 26.6196C51.6776 25.5241 50.5938 24.9433 49.619 25.2397C48.8196 25.482 48.1462 26.2028 47.7954 27.1493C47.8775 26.3788 47.8719 25.4353 47.5942 24.5129C47.2569 23.3934 46.5576 22.5567 45.7672 22.3295C44.8037 22.0526 43.6827 22.7162 43.0396 23.9456C42.627 24.7341 42.3516 25.7438 42.2515 26.7911C42.0986 26.0704 41.74 25.4082 41.2475 25.011C40.5156 24.4211 39.5251 24.4031 38.7235 24.9628C37.977 25.485 37.3923 26.4947 37.1596 27.6669C36.9606 28.6721 37.0078 29.7676 37.2956 30.851C36.602 30.0535 35.8734 29.2891 34.8964 29.5208C34.2421 29.6758 33.7013 30.2145 33.4135 30.9985C33.1268 31.778 33.138 32.6733 33.4427 33.4558C33.9576 34.777 35.0111 35.6016 36.6615 35.9763C37.8038 36.2351 38.9798 36.2517 40.1165 36.2667C40.3279 36.2697 40.5381 36.2727 40.7495 36.2772C40.9159 36.2803 41.0631 36.2848 41.1992 36.2908C42.1312 36.3299 43.0644 36.3555 43.9717 36.366C44.3618 36.3705 44.7497 36.3736 45.1387 36.3736C46.5497 36.3736 47.9461 36.3405 49.3053 36.2757C49.6415 36.2592 49.9833 36.2351 50.3138 36.2125C50.8018 36.1779 51.3054 36.1433 51.8013 36.1328C52.6355 36.1132 53.3809 36.0636 54.06 35.6573C54.6468 35.3052 55.4316 34.7017 55.4844 33.5265C55.5182 32.7817 55.2652 31.9886 54.7907 31.3506Z" fill="#525B81"/>
<path d="M28.5207 22.8894C27.499 21.5139 26.1095 20.9086 24.852 21.2698C25.6528 20.0452 25.7699 18.0685 25.0982 16.6494C24.4146 15.2045 22.9851 14.4384 21.6994 14.8294C20.6451 15.1489 19.7568 16.0996 19.2941 17.348C19.4024 16.3318 19.395 15.0874 19.0287 13.8708C18.5839 12.3941 17.6615 11.2906 16.619 10.9909C15.3482 10.6257 13.8698 11.501 13.0215 13.1225C12.4773 14.1625 12.114 15.4943 11.982 16.8756C11.7804 15.9249 11.3073 15.0517 10.6578 14.5277C9.69247 13.7497 8.38604 13.7259 7.32874 14.4642C6.34411 15.1529 5.57301 16.4846 5.26605 18.0307C5.00358 19.3565 5.06586 20.8014 5.44548 22.2304C4.53054 21.1785 3.56963 20.1703 2.281 20.4759C1.41796 20.6804 0.704696 21.3909 0.325077 22.4249C-0.0530587 23.453 -0.0382284 24.6339 0.363634 25.666C1.0428 27.4086 2.43226 28.4962 4.60914 28.9904C6.11575 29.3318 7.66684 29.3536 9.16604 29.3735C9.44482 29.3774 9.72212 29.3814 10.0009 29.3873C10.2204 29.3913 10.4146 29.3973 10.5941 29.4052C11.8234 29.4568 13.0542 29.4906 14.2509 29.5044C14.7654 29.5104 15.277 29.5144 15.7901 29.5144C17.6511 29.5144 19.4929 29.4707 21.2857 29.3854C21.729 29.3635 22.1798 29.3318 22.6158 29.302C23.2594 29.2564 23.9237 29.2107 24.5777 29.1968C25.678 29.171 26.6611 29.1055 27.5568 28.5696C28.3309 28.1052 29.3659 27.3093 29.4356 25.7593C29.4801 24.7768 29.1464 23.7309 28.5207 22.8894Z" fill="#525B81"/>
</svg>
