<svg width="177" height="224" viewBox="0 0 177 224" fill="none" xmlns="http://www.w3.org/2000/svg">
<mask id="mask0_450_465" style="mask-type:alpha" maskUnits="userSpaceOnUse" x="0" y="0" width="177" height="224">
<rect width="177" height="224" fill="#AFDBC5"/>
</mask>
<g mask="url(#mask0_450_465)">
<path d="M176.998 -3.12769H-2.57458V224H176.998V-3.12769Z" fill="#4C53B4"/>
<path d="M93.4032 94.1606C82.9879 95.2963 56.5081 95.1418 39.7109 89.1638C29.714 85.6047 17.0254 79.8516 12.5954 61C12.5954 61 11.8986 76.7104 29.5452 88.5347C27.4927 89.0026 25.4312 89.4387 23.3446 89.5227C22.1756 89.5704 21.0155 89.4932 19.8627 89.2547C18.4458 88.9617 17.047 88.78 15.6373 89.2592C14.3731 89.6908 13.1951 90.6084 12.4194 91.9416C11.6598 93.2476 11.9453 94.7762 13.1682 95.3576C13.5812 95.5529 14.0355 95.6324 14.4665 95.5121C15.2459 95.2917 15.6427 94.4173 15.9318 93.5519C15.9318 93.5519 14.5222 95.7823 13.1933 94.3514C12.3853 93.4815 12.924 91.7008 14.9891 90.9263C17.3181 90.0519 21.5129 91.133 21.5129 91.133C20.6456 91.8076 19.8142 92.5753 19.0241 93.3861C17.715 94.7307 16.2676 96.3479 15.9264 98.5374C15.842 99.078 15.8223 99.6321 15.869 100.18C16.0378 102.121 16.9482 103.68 18.5123 104.066C20.0297 104.44 22.4683 104.12 23.2189 102.11C23.578 101.147 23.3051 99.5186 22.5563 98.9553C22.1217 98.6282 21.4716 98.7304 21.2131 99.2801C21.5938 98.8645 22.2276 99.162 22.5006 99.6957C22.9513 100.577 22.6568 101.84 22.0122 102.499C21.3675 103.157 20.4768 103.305 19.6526 103.189C18.9002 103.082 18.146 102.76 17.5857 102.115C16.5801 100.954 16.6555 99.0825 17.3451 97.7129C18.0221 96.3683 19.1605 95.503 20.229 94.7262C22.1127 93.3566 24.1688 92.3709 26.2986 91.8235C26.541 91.7622 26.866 91.6077 27.1084 91.7008C26.3111 94.1334 25.4097 98.4806 27.9596 99.7298C29.7769 100.62 31.0824 98.5987 31.4846 96.5387C31.1901 97.1133 30.8382 97.6516 30.3946 98.0423C29.9493 98.4329 29.4034 98.6646 28.8665 98.5874C28.1123 98.4806 27.4442 97.7243 27.2772 96.7885C27.1641 96.1526 27.2665 95.478 27.4712 94.8806C28.3206 92.3981 30.2653 90.9422 32.2712 90.245C36.0673 92.464 40.5944 94.5013 45.9941 96.2093C46.2347 96.2752 46.4754 96.3388 46.716 96.4024C45.4123 97.3586 42.927 99.1711 42.4027 99.5027C41.9448 99.7911 41.2175 99.698 40.7237 99.7389C39.7019 99.8207 38.6783 99.9047 37.6619 100.066C36.1104 100.314 33.9879 100.731 32.8907 102.312C32.325 103.128 32.2388 104.402 32.7722 105.299C33.1565 105.946 33.8496 106.087 34.4458 105.865C34.9073 105.69 35.3544 105.251 35.5484 104.699C35.1623 104.926 34.7367 105.122 34.3057 105.095C33.0002 105.015 33.1205 103.296 34.0076 102.569C34.7708 101.944 38.4521 100.922 40.3825 101.206C40.2424 101.186 39.7037 102.09 39.6175 102.208C39.0016 103.048 38.4161 103.923 37.8684 104.836C36.6958 106.793 35.1731 109.489 35.4406 112.079C35.5843 113.462 36.29 114.718 37.2471 115.413C39.235 116.853 43.3167 115.908 43.1928 112.26C43.1515 111.054 42.365 109.894 41.4096 109.864C41.4707 109.867 41.9735 110.745 42.0471 110.877C42.277 111.291 42.4242 111.756 42.4386 112.267C42.4763 113.732 41.5551 114.67 40.4812 114.825C39.3194 114.993 37.8972 114.534 37.143 113.335C36.0763 111.636 37.0909 109.126 37.8613 107.538C38.5598 106.096 39.4595 104.72 40.4633 103.6C40.9876 103.014 41.5515 102.485 42.1441 102.012C42.3901 101.815 43.9183 101.059 43.9721 100.809C43.3849 103.5 43.1227 107.205 45.2668 108.906C45.8253 109.349 46.5077 109.594 47.1542 109.428C48.8098 109.006 48.9409 106.564 47.56 105.631C47.7108 105.971 47.8653 106.317 47.9389 106.696C48.0125 107.075 47.9981 107.5 47.8293 107.827C47.6695 108.14 47.3894 108.329 47.1021 108.411C46.8184 108.492 46.5167 108.479 46.2437 108.352C45.8038 108.145 45.477 107.659 45.283 107.121C44.606 105.238 44.5791 101.379 46.0372 100.016C46.8094 99.2937 49.1887 97.9378 50.3398 97.2995C55.0284 98.3602 59.5986 99.0325 63.9909 99.4187C62.3927 100.618 59.9433 102.762 59.0419 103.482C56.6518 105.39 50.0309 107.209 51.6327 112.453C52.3995 114.963 55.6084 113.982 54.8524 111.431C54.8524 111.431 54.1934 113.551 53.177 113.096C52.1589 112.642 51.7997 110.296 53.1178 109.008C54.434 107.72 57.7633 105.676 58.223 105.526C58.223 105.526 53.6565 115.368 59.4621 118.472C61.7085 119.558 63.8203 117.216 64.2154 114.461C64.3411 113.58 64.2657 112.569 63.7485 111.958C63.1146 111.207 61.9671 111.477 61.5523 112.424C61.8899 111.656 63.1146 112.603 63.2547 113.158C63.5384 114.291 62.7267 115.697 62.0551 116.349C61.1393 117.239 60.0277 117.021 59.0975 116.267C57.4922 114.961 58.0668 111.388 58.7564 109.574C59.8895 106.587 62.531 104.216 64.6212 102.33C65.5873 101.461 66.5714 100.622 67.5662 99.8048C67.6039 99.773 67.6506 99.7298 67.7027 99.6798C77.1877 100.184 85.7336 99.4118 92.7459 98.442C90.354 100.075 85.6133 103.296 84.9022 103.634C84.2647 103.936 83.3614 103.741 82.6988 103.748C81.3592 103.761 80.016 103.834 78.6925 104.116C75.55 104.783 71.7323 106.739 71.172 110.902C70.9512 112.551 71.6263 113.984 72.8241 114.443C73.388 114.659 74.0326 114.613 74.5211 114.202C75.0113 113.791 75.3004 112.976 75.1244 112.265C74.9484 111.554 74.2589 111.086 73.7238 111.393C74.1817 111.132 74.46 112.472 74.3792 112.808C74.2068 113.523 73.4257 113.791 72.9265 113.537C72.3662 113.253 72.0268 112.474 72.016 111.711C71.9963 110.278 72.8528 109.194 73.7094 108.424C76.3868 106.014 79.7646 105.208 83.0454 104.981C82.618 105.011 81.7183 106.203 81.3718 106.544C80.7558 107.146 80.1525 107.768 79.5742 108.424C78.4322 109.719 77.3745 111.148 76.5269 112.767C75.3202 115.072 74.636 118.02 75.7062 120.616C78.7303 127.953 86.7105 119.733 82.6306 115.824C83.444 116.603 82.354 119.74 81.8135 120.428C81.5908 120.712 81.3089 120.914 81.0144 121.066C77.9976 122.633 76.579 118.906 77.7695 115.767C78.6261 113.505 80.0932 111.686 81.4669 109.921C83.5841 107.202 86.1682 104.306 89.0916 103.105C89.0916 103.105 85.9778 114.282 89.8692 115.143C92.1641 115.651 93.1643 111.227 90.3414 111.213C91.8894 111.222 91.6254 114.713 90.0164 114.286C87.1899 113.535 89.9841 103.448 91.0669 101.819C91.9037 100.559 94.9942 98.8304 96.9659 97.8151C102.141 96.9929 106.21 96.1889 108.845 95.989C111.032 95.8232 113.722 95.562 116.735 95.3621C114.815 96.6886 112.863 97.9332 110.822 98.928C109.261 99.6889 107.665 100.273 106.018 100.632C103.994 101.074 102.035 101.658 100.313 103.153C98.767 104.493 97.5226 106.448 96.9767 108.735C96.4415 110.973 97.4022 112.892 99.2734 112.958C99.9055 112.98 100.55 112.819 101.085 112.397C102.055 111.631 102.261 110.2 102.326 108.844C102.326 108.844 101.261 112.733 98.9286 111.565C97.51 110.857 97.5674 108.104 100.065 105.815C102.881 103.234 108.956 102.217 108.956 102.217C108.038 103.655 107.205 105.199 106.444 106.778C105.18 109.394 103.835 112.465 104.199 115.663C104.289 116.451 104.47 117.223 104.74 117.943C105.697 120.498 107.514 122.086 109.771 121.684C111.962 121.293 115.135 119.404 115.392 116.21C115.516 114.682 114.532 112.615 113.309 112.29C112.598 112.101 111.761 112.626 111.619 113.535C111.976 112.74 112.946 112.769 113.515 113.337C114.454 114.273 114.535 116.176 113.912 117.459C113.289 118.743 112.142 119.476 110.985 119.806C109.927 120.108 108.787 120.117 107.789 119.567C105.993 118.581 105.391 115.974 105.806 113.694C106.214 111.452 107.428 109.592 108.577 107.895C110.604 104.904 113.013 102.33 115.681 100.316C115.984 100.086 116.367 99.6821 116.728 99.6662C116.566 103.464 116.985 109.944 120.898 110.135C123.688 110.271 124.688 106.73 124.457 103.675C124.275 104.636 124.002 105.581 123.55 106.378C123.097 107.175 122.445 107.818 121.689 108.031C120.632 108.333 119.445 107.695 118.867 106.516C118.473 105.715 118.36 104.733 118.412 103.793C118.61 100.186 120.404 97.2269 122.607 95.101C129.063 94.976 136.31 95.4394 143.048 97.6221C140.776 99.3687 137.826 101.89 136.659 102.805C133.191 105.519 123.58 108.106 125.906 115.565C127.017 119.136 131.676 117.739 130.578 114.112C130.578 114.112 129.623 117.128 128.147 116.48C126.671 115.835 126.148 112.497 128.061 110.666C129.973 108.835 134.802 105.928 135.47 105.712C135.47 105.712 128.842 119.713 137.267 124.126C140.527 125.668 143.594 122.34 144.165 118.422C144.348 117.171 144.237 115.731 143.488 114.861C142.567 113.791 140.904 114.177 140.302 115.522C140.792 114.43 142.57 115.779 142.771 116.567C143.184 118.179 142.005 120.178 141.031 121.105C139.702 122.37 138.088 122.063 136.739 120.987C134.409 119.129 135.244 114.048 136.244 111.465C137.887 107.218 141.721 103.843 144.756 101.165C145.524 100.486 146.3 99.8229 147.083 99.1711C153.614 102.062 161.219 106.562 167.545 110.759C165.688 112.036 163.798 113.23 161.824 114.191C160.264 114.952 158.667 115.536 157.02 115.894C154.997 116.337 153.038 116.921 151.315 118.416C149.769 119.756 148.525 121.711 147.979 123.998C147.444 126.236 148.405 128.155 150.276 128.221C150.908 128.243 151.552 128.082 152.088 127.66C153.057 126.894 153.264 125.463 153.328 124.107C153.328 124.107 152.264 127.996 149.931 126.828C148.512 126.12 148.57 123.367 151.068 121.078C153.883 118.497 159.958 117.48 159.958 117.48C159.041 118.918 158.207 120.462 157.446 122.041C156.182 124.657 154.837 127.728 155.201 130.926C155.291 131.714 155.473 132.486 155.742 133.206C156.699 135.761 158.516 137.349 160.773 136.947C162.964 136.556 166.137 134.667 166.394 131.473C166.518 129.945 165.534 127.878 164.311 127.553C163.6 127.364 162.763 127.889 162.621 128.795C162.979 128 163.948 128.03 164.518 128.598C165.457 129.534 165.538 131.437 164.914 132.72C164.291 134.003 163.144 134.737 161.987 135.066C160.93 135.368 159.789 135.377 158.791 134.828C156.995 133.842 156.394 131.235 156.809 128.954C157.216 126.713 158.43 124.852 159.579 123.156C161.607 120.164 164.015 117.591 166.683 115.577C166.987 115.347 167.369 114.943 167.73 114.927C167.569 118.724 167.987 125.204 171.9 125.395C174.69 125.532 175.691 121.991 175.459 118.936C175.278 119.896 175.005 120.841 174.552 121.639C174.098 122.436 173.448 123.079 172.692 123.292C171.634 123.594 170.447 122.956 169.869 121.777C169.476 120.975 169.362 119.994 169.415 119.054C169.533 116.882 170.232 114.943 171.25 113.28C173.441 114.813 175.371 116.244 176.906 117.464V100.747C176.906 100.747 162.9 84.3942 142.787 84.6213C122.675 84.8484 103.818 93.025 93.4032 94.1606Z" fill="#7C8EE4"/>
</g>
</svg>
