<svg width="27" height="27" viewBox="0 0 27 27" fill="none" xmlns="http://www.w3.org/2000/svg">
<g clip-path="url(#clip0_391_474)">
<path d="M13.9043 26.1145C21.9231 26.1145 26.9043 22.0845 26.9043 15.5953C26.9043 7.88677 21.1938 1.84784 13.9043 1.84784C6.61476 1.84784 0.904297 7.88677 0.904297 15.5953C0.904297 22.0845 5.88763 26.1145 13.9043 26.1145ZM13.9043 2.71451C20.7076 2.71451 26.0376 8.37254 26.0376 15.5953C26.0376 21.6395 21.5015 25.2478 13.9043 25.2478C6.3071 25.2478 1.77096 21.6395 1.77096 15.5953C1.77096 8.37254 7.10096 2.71451 13.9043 2.71451Z" fill="white"/>
<path d="M14.3376 18.7479H13.4709C13.356 18.7479 13.2458 18.7936 13.1645 18.8748C13.0833 18.9561 13.0376 19.0663 13.0376 19.1813C13.0376 19.2962 13.0833 19.4064 13.1645 19.4877C13.2458 19.5689 13.356 19.6146 13.4709 19.6146H14.3376C14.4525 19.6146 14.5627 19.5689 14.644 19.4877C14.7253 19.4064 14.7709 19.2962 14.7709 19.1813C14.7709 19.0663 14.7253 18.9561 14.644 18.8748C14.5627 18.7936 14.4525 18.7479 14.3376 18.7479Z" fill="white"/>
<path d="M10.0745 18.5109C10.0434 18.5585 10.022 18.6119 10.0115 18.6679C10.001 18.7238 10.0016 18.7813 10.0133 18.8371C10.025 18.8928 10.0476 18.9457 10.0797 18.9927C10.1119 19.0397 10.153 19.0799 10.2006 19.111C10.297 19.1739 10.4143 19.1959 10.5268 19.1723C10.5826 19.1606 10.6355 19.138 10.6825 19.1058C10.7295 19.0737 10.7697 19.0326 10.8008 18.9849C11.1473 18.4886 11.6133 18.0876 12.1557 17.819C12.6982 17.5503 13.2996 17.4227 13.9043 17.4479C14.5091 17.4227 15.1105 17.5503 15.6529 17.819C16.1954 18.0876 16.6614 18.4886 17.0079 18.9849C17.0707 19.0812 17.1693 19.1486 17.2818 19.1723C17.3944 19.1959 17.5117 19.1739 17.608 19.111C17.7044 19.0482 17.7717 18.9496 17.7954 18.8371C17.819 18.7245 17.797 18.6072 17.7341 18.5109C17.3086 17.8941 16.7348 17.3942 16.0656 17.057C15.3964 16.7199 14.6533 16.5562 13.9043 16.5812C13.1554 16.5562 12.4122 16.7199 11.7431 17.057C11.0739 17.3942 10.5001 17.8941 10.0745 18.5109Z" fill="white"/>
<path d="M8.04132 13.1804C7.94363 13.2413 7.87414 13.3385 7.84814 13.4507C7.82213 13.5628 7.84174 13.6807 7.90265 13.7784C7.96356 13.8761 8.06079 13.9456 8.17293 13.9716C8.28508 13.9976 8.40296 13.978 8.50065 13.9171C8.95704 13.6547 9.47831 13.5267 10.0043 13.5479C10.5302 13.5262 11.0514 13.6536 11.508 13.9153C11.6057 13.9762 11.7236 13.9958 11.8357 13.9698C11.9479 13.9438 12.0451 13.8743 12.106 13.7767C12.1669 13.679 12.1865 13.5611 12.1605 13.4489C12.1345 13.3368 12.065 13.2396 11.9673 13.1787C11.8743 13.1214 11.7781 13.0694 11.6792 13.0231C12.0037 12.5374 12.1751 11.9654 12.171 11.3812C12.171 9.94729 11.199 8.78119 10.0043 8.78119C8.80962 8.78119 7.83765 9.94729 7.83765 11.3812C7.83322 11.966 8.00457 12.5386 8.32948 13.0248C8.23055 13.0712 8.13434 13.1231 8.04132 13.1804ZM10.0043 9.64786C10.2551 9.66737 10.4947 9.75982 10.6936 9.91381C10.8925 10.0678 11.0419 10.2766 11.1236 10.5145H8.88502C8.9667 10.2766 9.11619 10.0678 9.31507 9.91381C9.51395 9.75982 9.75354 9.66737 10.0043 9.64786ZM8.70432 11.3812H11.3043C11.3158 11.8881 11.1268 12.3792 10.7783 12.7475C10.2661 12.6591 9.74255 12.6591 9.23039 12.7475C8.88187 12.3792 8.69282 11.8881 8.70432 11.3812Z" fill="white"/>
<path d="M15.8412 13.1804C15.7929 13.2105 15.7509 13.2499 15.7178 13.2963C15.6846 13.3427 15.6609 13.3951 15.6481 13.4507C15.6352 13.5062 15.6334 13.5637 15.6427 13.62C15.6521 13.6762 15.6724 13.73 15.7026 13.7784C15.7327 13.8268 15.7721 13.8687 15.8185 13.9019C15.8649 13.935 15.9173 13.9587 15.9729 13.9716C16.0284 13.9844 16.0859 13.9863 16.1421 13.9769C16.1984 13.9676 16.2522 13.9472 16.3006 13.9171C16.757 13.6547 17.2782 13.5267 17.8042 13.5479C18.3301 13.5262 18.8513 13.6536 19.3079 13.9153C19.3563 13.9455 19.4101 13.9658 19.4663 13.9752C19.5226 13.9845 19.5801 13.9827 19.6356 13.9698C19.6912 13.957 19.7436 13.9333 19.79 13.9001C19.8364 13.867 19.8758 13.825 19.9059 13.7767C19.9361 13.7283 19.9564 13.6744 19.9658 13.6182C19.9751 13.562 19.9733 13.5045 19.9604 13.4489C19.9476 13.3934 19.9239 13.341 19.8907 13.2946C19.8576 13.2482 19.8156 13.2088 19.7672 13.1787C19.6742 13.1214 19.578 13.0694 19.4791 13.0231C19.8037 12.5374 19.975 11.9654 19.9709 11.3812C19.9709 9.94729 18.9989 8.78119 17.8042 8.78119C16.6095 8.78119 15.6376 9.94729 15.6376 11.3812C15.6331 11.966 15.8045 12.5386 16.1294 13.0248C16.0305 13.0712 15.9343 13.1231 15.8412 13.1804ZM17.8042 9.64786C18.055 9.66737 18.2946 9.75982 18.4935 9.91381C18.6924 10.0678 18.8419 10.2766 18.9235 10.5145H16.6849C16.7666 10.2766 16.9161 10.0678 17.115 9.91381C17.3139 9.75982 17.5535 9.66737 17.8042 9.64786ZM16.5042 11.3812H19.1042C19.1157 11.8881 18.9267 12.3792 18.5782 12.7475C18.066 12.6591 17.5425 12.6591 17.0303 12.7475C16.6818 12.3792 16.4927 11.8881 16.5042 11.3812Z" fill="white"/>
</g>
<defs>
<clipPath id="clip0_391_474">
<rect width="26" height="26" fill="white" transform="translate(0.904297 0.981201)"/>
</clipPath>
</defs>
</svg>
