<svg width="26" height="26" viewBox="0 0 26 26" fill="none" xmlns="http://www.w3.org/2000/svg">
<g clip-path="url(#clip0_391_475)">
<path d="M13 0C5.71047 0 0 6.03763 0 13.7453C0 18.4431 2.53933 21.8634 7.15 23.3918L8.71 24.9409C9.39458 25.6178 10.3185 25.9975 11.2812 25.9975C12.2439 25.9975 13.1678 25.6178 13.8524 24.9409L14.5925 24.2043C21.7382 23.6968 26 19.7968 26 13.7453C26 6.03763 20.2895 0 13 0ZM13.2396 24.3265C12.7177 24.8425 12.0134 25.1319 11.2794 25.1319C10.5455 25.1319 9.84119 24.8425 9.31927 24.3265L7.74497 22.7617C7.3826 22.4035 7.12738 21.9514 7.00803 21.456C6.88868 20.9607 6.90993 20.4419 7.0694 19.958L8.84 14.0669C8.88371 13.9404 8.97172 13.834 9.08777 13.7673C9.20382 13.7006 9.34007 13.6782 9.47137 13.7042C9.54498 13.7198 9.6146 13.7504 9.67588 13.7941C9.73716 13.8378 9.78879 13.8936 9.82756 13.9581C9.86634 14.0227 9.89143 14.0944 9.90127 14.1691C9.91111 14.2437 9.90549 14.3195 9.88477 14.3919L9.23953 17.3117C9.21982 17.4028 9.23002 17.4979 9.26864 17.5827C9.30725 17.6676 9.37221 17.7378 9.45387 17.7828C9.53553 17.8278 9.62953 17.8453 9.72192 17.8326C9.8143 17.82 9.90013 17.7778 9.96667 17.7125L14.5448 13.1625C14.5945 13.1063 14.655 13.0608 14.7228 13.0289C14.7907 12.9969 14.8643 12.9792 14.9392 12.9767C15.0141 12.9743 15.0888 12.9871 15.1586 13.0145C15.2283 13.0419 15.2918 13.0833 15.345 13.1361C15.3982 13.1889 15.4401 13.252 15.468 13.3216C15.496 13.3911 15.5094 13.4657 15.5075 13.5406C15.5056 13.6156 15.4885 13.6893 15.457 13.7574C15.4256 13.8254 15.3806 13.8864 15.3248 13.9364L11.4929 17.7441C11.4514 17.784 11.4182 17.8317 11.3954 17.8845C11.3726 17.9373 11.3604 17.9941 11.3598 18.0517C11.3591 18.1092 11.3699 18.1663 11.3916 18.2196C11.4132 18.2729 11.4453 18.3214 11.4858 18.3622C11.5264 18.4029 11.5747 18.4353 11.6279 18.4572C11.681 18.4791 11.7381 18.4903 11.7956 18.4899C11.8531 18.4896 11.91 18.4778 11.9629 18.4553C12.0159 18.4327 12.0638 18.3999 12.1039 18.3586L16.8133 13.6829C16.8646 13.6308 16.9258 13.5894 16.9932 13.5612C17.0606 13.533 17.133 13.5184 17.2062 13.5184C17.2793 13.5184 17.3517 13.533 17.4191 13.5612C17.4865 13.5894 17.5477 13.6308 17.599 13.6829C17.7003 13.7852 17.7572 13.9233 17.7572 14.0673C17.7572 14.2113 17.7003 14.3494 17.599 14.4517L12.893 19.1317C12.8515 19.1715 12.8183 19.2193 12.7955 19.2721C12.7727 19.3249 12.7605 19.3817 12.7599 19.4392C12.7592 19.4967 12.77 19.5538 12.7917 19.6071C12.8133 19.6604 12.8454 19.7089 12.8859 19.7497C12.9265 19.7905 12.9748 19.8228 13.028 19.8447C13.0811 19.8667 13.1382 19.8778 13.1957 19.8775C13.2532 19.8771 13.3101 19.8654 13.363 19.8428C13.416 19.8203 13.4639 19.7874 13.504 19.7461C13.504 19.7461 17.3385 15.9354 17.3398 15.9328C17.443 15.8336 17.5808 15.7786 17.724 15.7795C17.8671 15.7804 18.0042 15.8371 18.1062 15.9375C18.2081 16.038 18.2669 16.1742 18.2699 16.3173C18.273 16.4604 18.22 16.599 18.1224 16.7037L14.2874 20.517C14.2459 20.5569 14.2128 20.6046 14.19 20.6574C14.1671 20.7102 14.155 20.767 14.1544 20.8246C14.1537 20.8821 14.1645 20.9392 14.1861 20.9925C14.2078 21.0458 14.2398 21.0943 14.2804 21.1351C14.321 21.1758 14.3692 21.2082 14.4224 21.2301C14.4756 21.252 14.5326 21.2632 14.5902 21.2628C14.6477 21.2625 14.7046 21.2507 14.7575 21.2282C14.8104 21.2056 14.8583 21.1728 14.8984 21.1315L17.6878 18.3582C17.793 18.2562 17.934 18.1995 18.0805 18.2002C18.227 18.2008 18.3674 18.2588 18.4717 18.3616C18.5731 18.4643 18.6297 18.603 18.629 18.7474C18.6284 18.8917 18.5705 19.0299 18.4682 19.1317L13.2396 24.3265ZM15.5606 23.2431L19.0749 19.7509C19.2078 19.621 19.3137 19.4661 19.3867 19.2951C19.4596 19.1242 19.4981 18.9405 19.5 18.7547V18.7386C19.4968 18.4583 19.4109 18.1851 19.253 17.9534C19.0951 17.7218 18.8723 17.5419 18.6125 17.4365L18.7287 17.3216C18.8945 17.1569 19.0168 16.9536 19.0848 16.7299C19.1527 16.5063 19.1642 16.2692 19.1181 16.0401C19.072 15.8109 18.9697 15.5968 18.8206 15.4168C18.6714 15.2369 18.4799 15.0967 18.2633 15.0089C18.4959 14.7471 18.625 14.4093 18.6264 14.0591C18.6233 13.7858 18.5414 13.5193 18.3906 13.2914C18.2399 13.0635 18.0266 12.8839 17.7763 12.7741C17.5261 12.6643 17.2495 12.6291 16.9797 12.6725C16.7099 12.716 16.4583 12.8363 16.2552 13.0191C16.184 12.8432 16.0779 12.6835 15.9432 12.5498C15.6761 12.2851 15.3154 12.1366 14.9394 12.1366C14.5634 12.1366 14.2026 12.2851 13.9356 12.5498L10.4039 16.0598L10.7267 14.5981C10.7909 14.3589 10.7904 14.107 10.7254 13.868C10.6604 13.6291 10.5331 13.4116 10.3567 13.2379C10.1609 13.0403 9.90977 12.9067 9.63647 12.8548C9.29733 12.7894 8.94597 12.8495 8.64792 13.0241C8.34987 13.1986 8.1255 13.4756 8.01667 13.8034L6.24217 19.6993C5.98055 20.5007 6.00908 21.3686 6.32277 22.1511C3.60923 20.9655 0.866667 18.574 0.866667 13.7453C0.866667 6.52383 6.19667 0.866667 13 0.866667C19.8033 0.866667 25.1333 6.52383 25.1333 13.7453C25.1333 19.0797 21.6628 22.493 15.5606 23.2414V23.2431Z" fill="white"/>
<path d="M9.10002 6.49939C7.90532 6.49939 6.93335 7.66549 6.93335 9.09939C6.93335 10.5333 7.90532 11.6994 9.10002 11.6994C10.2947 11.6994 11.2667 10.5333 11.2667 9.09939C11.2667 7.66549 10.2947 6.49939 9.10002 6.49939ZM9.10002 10.8327C8.38328 10.8327 7.80002 10.0553 7.80002 9.09939C7.80002 8.14346 8.38328 7.36606 9.10002 7.36606C9.81675 7.36606 10.4 8.14346 10.4 9.09939C10.4 10.0553 9.81675 10.8327 9.10002 10.8327Z" fill="white"/>
<path d="M16.8999 6.49939C15.7052 6.49939 14.7333 7.66549 14.7333 9.09939C14.7333 10.5333 15.7052 11.6994 16.8999 11.6994C18.0946 11.6994 19.0666 10.5333 19.0666 9.09939C19.0666 7.66549 18.0946 6.49939 16.8999 6.49939ZM16.8999 10.8327C16.1832 10.8327 15.5999 10.0553 15.5999 9.09939C15.5999 8.14346 16.1832 7.36606 16.8999 7.36606C17.6167 7.36606 18.1999 8.14346 18.1999 9.09939C18.1999 10.0553 17.6167 10.8327 16.8999 10.8327Z" fill="white"/>
<path d="M9.48995 4.57252C9.46453 4.52157 9.42932 4.47613 9.38633 4.4388C9.34335 4.40146 9.29342 4.37297 9.23941 4.35494C9.18541 4.33691 9.12838 4.3297 9.07158 4.33372C9.01479 4.33775 8.95934 4.35292 8.90842 4.37838L6.30842 5.67838C6.25749 5.70382 6.21206 5.73904 6.17474 5.78203C6.13742 5.82502 6.10894 5.87494 6.09091 5.92894C6.07288 5.98294 6.06567 6.03997 6.06968 6.09676C6.07369 6.15354 6.08885 6.20899 6.11428 6.25992C6.16566 6.36278 6.25579 6.44102 6.36484 6.47742C6.41884 6.49545 6.47587 6.50266 6.53266 6.49865C6.58944 6.49464 6.64489 6.47949 6.69582 6.45405L9.29582 5.15405C9.34677 5.12863 9.3922 5.09342 9.42954 5.05043C9.46687 5.00745 9.49537 4.95752 9.5134 4.90351C9.53142 4.84951 9.53863 4.79248 9.53461 4.73568C9.53059 4.67889 9.51541 4.62344 9.48995 4.57252Z" fill="white"/>
<path d="M19.6936 5.67838L17.0936 4.37838C16.9908 4.32701 16.8717 4.3186 16.7627 4.35501C16.6536 4.39142 16.5635 4.46966 16.5121 4.57252C16.4607 4.67538 16.4523 4.79443 16.4887 4.90349C16.5251 5.01255 16.6034 5.10268 16.7062 5.15405L19.3062 6.45405C19.3572 6.47949 19.4126 6.49464 19.4694 6.49865C19.5262 6.50266 19.5832 6.49545 19.6372 6.47742C19.6912 6.4594 19.7411 6.43091 19.7841 6.39359C19.8271 6.35627 19.8623 6.31085 19.8878 6.25992C19.9132 6.20899 19.9284 6.15354 19.9324 6.09676C19.9364 6.03997 19.9292 5.98294 19.9112 5.92894C19.8931 5.87494 19.8646 5.82502 19.8273 5.78203C19.79 5.73904 19.7446 5.70382 19.6936 5.67838Z" fill="white"/>
</g>
<defs>
<clipPath id="clip0_391_475">
<rect width="26" height="25.9975" fill="white"/>
</clipPath>
</defs>
</svg>
