<svg width="26" height="26" viewBox="0 0 26 26" fill="none" xmlns="http://www.w3.org/2000/svg">
<g clip-path="url(#clip0_391_301)">
<path d="M24.8066 12.1333H23.5794C23.3497 12.1341 23.1296 12.2253 22.9667 12.3873L22.1407 13.2128L19.5386 9.86745C19.4578 9.76311 19.3541 9.67872 19.2356 9.62079C19.117 9.56286 18.9867 9.53295 18.8548 9.53335H16.7345C16.588 9.53379 16.4442 9.57179 16.3167 9.64371C16.1891 9.71564 16.0822 9.81908 16.006 9.94415C15.3218 9.12451 14.909 8.11257 14.8248 7.04818C14.8555 7.01828 14.8876 6.98968 14.9166 6.95848C15.2168 7.19902 15.5865 7.33656 15.9709 7.35076C16.3553 7.36497 16.7341 7.25508 17.0512 7.03735C17.3168 7.20325 17.6151 7.30962 17.9257 7.34915C18.2363 7.38867 18.5518 7.36041 18.8504 7.2663C19.1491 7.17219 19.4238 7.01448 19.6556 6.80402C19.8874 6.59356 20.0709 6.33535 20.1933 6.04718C20.5917 5.98727 20.9567 5.79049 21.2257 5.49065C21.4947 5.19082 21.6509 4.80665 21.6674 4.40417C21.6839 4.00169 21.5597 3.60602 21.3162 3.28516C21.0727 2.9643 20.725 2.73828 20.3329 2.64595C20.2761 2.33283 20.151 2.03606 19.9665 1.77675C19.7821 1.51743 19.5428 1.30193 19.2656 1.14556C18.9885 0.989194 18.6803 0.895799 18.3629 0.872014C18.0456 0.848229 17.7269 0.894639 17.4295 1.00795C17.2701 0.754936 17.06 0.53775 16.8123 0.370116C16.5647 0.202483 16.285 0.0880473 15.9908 0.0340444C15.6967 -0.0199586 15.3946 -0.0123547 15.1035 0.0563753C14.8125 0.125105 14.5389 0.253467 14.3 0.433345C13.9216 0.160139 13.4667 0.0130951 13 0.0130951C12.5333 0.0130951 12.0784 0.160139 11.7 0.433345C11.4612 0.253368 11.1877 0.124872 10.8968 0.0559775C10.6059 -0.0129168 10.3038 -0.0207117 10.0097 0.0330855C9.71556 0.0868827 9.4358 0.201102 9.18808 0.368526C8.94036 0.53595 8.73006 0.752939 8.57047 1.00578C8.27309 0.892473 7.95441 0.846062 7.63708 0.869847C7.31974 0.893632 7.01154 0.987028 6.73438 1.1434C6.45722 1.29976 6.21791 1.51526 6.03345 1.77458C5.84899 2.0339 5.72393 2.33066 5.66713 2.64378C5.27504 2.73612 4.92735 2.96214 4.68381 3.283C4.44026 3.60386 4.31608 3.99952 4.33259 4.40201C4.3491 4.80449 4.50528 5.18865 4.77428 5.48849C5.04329 5.78832 5.40833 5.9851 5.80667 6.04501C5.92914 6.33306 6.11257 6.59115 6.34433 6.80152C6.57609 7.01189 6.85068 7.16955 7.14921 7.26365C7.44773 7.35775 7.76309 7.38606 8.0736 7.34661C8.38411 7.30717 8.68238 7.20092 8.9479 7.03518C9.26503 7.25291 9.64382 7.3628 10.0282 7.3486C10.4127 7.33439 10.7823 7.19685 11.0825 6.95631C11.1115 6.98751 11.1432 7.01525 11.1735 7.04515C10.8442 9.50778 9.71447 10.2518 9.43583 10.3978H7.17383C7.02653 10.3972 6.88152 10.4343 6.75258 10.5055C6.62365 10.5767 6.51507 10.6797 6.43717 10.8047L4.52617 13.8667H3.68333L2.64333 12.48C2.56242 12.3726 2.4577 12.2854 2.3374 12.2252C2.2171 12.1651 2.0845 12.1336 1.95 12.1333H1.1934C1.00202 12.1328 0.815896 12.1959 0.664218 12.3126C0.51254 12.4293 0.403897 12.593 0.355333 12.7781C0.121035 13.7005 0.00168475 14.6483 0 15.6C0 22.1121 4.85983 26 13 26C21.1402 26 26 22.1121 26 15.6C25.9983 14.6482 25.8789 13.7002 25.6447 12.7777C25.596 12.5927 25.4873 12.429 25.3357 12.3124C25.184 12.1958 24.9979 12.1328 24.8066 12.1333ZM11.1037 5.82401C11.0264 5.8245 10.9507 5.84565 10.8843 5.88527C10.818 5.92489 10.7634 5.98154 10.7263 6.04935C10.6588 6.17265 10.5623 6.27768 10.4452 6.35539C10.328 6.4331 10.1938 6.48115 10.0539 6.49539C9.91407 6.50963 9.77285 6.48965 9.64245 6.43716C9.51205 6.38466 9.39638 6.30124 9.3054 6.19408C9.26753 6.1493 9.22095 6.11268 9.16851 6.08643C9.11607 6.06018 9.05884 6.04485 9.0003 6.04136C8.94175 6.03788 8.88311 6.04631 8.82792 6.06616C8.77274 6.086 8.72215 6.11684 8.67923 6.15681C8.51399 6.30899 8.31206 6.41566 8.09322 6.46637C7.87437 6.51708 7.64611 6.5101 7.43078 6.44611C7.21544 6.38212 7.02041 6.26331 6.86477 6.10132C6.70913 5.93933 6.59822 5.7397 6.5429 5.52198C6.51652 5.41854 6.45289 5.32849 6.3642 5.26907C6.27552 5.20966 6.16803 5.18507 6.06233 5.20001C5.83248 5.19944 5.61227 5.10758 5.45014 4.94464C5.28802 4.7817 5.19726 4.56103 5.19783 4.33118C5.19841 4.10132 5.29027 3.88111 5.45321 3.71899C5.61614 3.55686 5.83681 3.4661 6.06667 3.46668C6.18159 3.46668 6.29181 3.42102 6.37308 3.33976C6.45435 3.25849 6.5 3.14827 6.5 3.03335C6.49996 2.79759 6.56404 2.56626 6.68536 2.36412C6.80669 2.16198 6.9807 1.99664 7.18877 1.88579C7.39684 1.77495 7.63114 1.72277 7.86659 1.73484C8.10203 1.74692 8.32976 1.82279 8.5254 1.95435C8.58035 1.99114 8.643 2.01487 8.70854 2.02371C8.77408 2.03255 8.84078 2.02628 8.90352 2.00536C8.96626 1.98445 9.02338 1.94945 9.07051 1.90305C9.11763 1.85666 9.15351 1.80009 9.1754 1.73768C9.24986 1.52357 9.37921 1.33275 9.55053 1.18429C9.72184 1.03584 9.92912 0.934941 10.1516 0.89169C10.3742 0.84844 10.6041 0.864349 10.8186 0.937827C11.033 1.01131 11.2245 1.13978 11.3737 1.31041C11.4156 1.35452 11.466 1.38965 11.5218 1.41365C11.5777 1.43765 11.6379 1.45003 11.6987 1.45003C11.7595 1.45003 11.8197 1.43765 11.8756 1.41365C11.9314 1.38965 11.9818 1.35452 12.0237 1.31041C12.1452 1.17127 12.2951 1.05974 12.4632 0.983327C12.6314 0.90691 12.814 0.867374 12.9987 0.867374C13.1834 0.867374 13.366 0.90691 13.5342 0.983327C13.7023 1.05974 13.8522 1.17127 13.9737 1.31041C14.0156 1.35452 14.066 1.38965 14.1218 1.41365C14.1777 1.43765 14.2379 1.45003 14.2987 1.45003C14.3595 1.45003 14.4197 1.43765 14.4756 1.41365C14.5314 1.38965 14.5818 1.35452 14.6237 1.31041C14.7729 1.13978 14.9644 1.01131 15.1788 0.937827C15.3933 0.864349 15.6232 0.84844 15.8458 0.89169C16.0683 0.934941 16.2756 1.03584 16.4469 1.18429C16.6182 1.33275 16.7475 1.52357 16.822 1.73768C16.8437 1.80033 16.8795 1.85717 16.9266 1.90382C16.9737 1.95047 17.0308 1.9857 17.0937 2.00678C17.1566 2.02811 17.2235 2.03459 17.2893 2.02572C17.3551 2.01685 17.4179 1.99286 17.4729 1.95565C17.6684 1.82369 17.8962 1.74743 18.1318 1.73506C18.3674 1.72269 18.6019 1.77466 18.8102 1.8854C19.0186 1.99615 19.1928 2.1615 19.3143 2.36372C19.4358 2.56595 19.5 2.79742 19.5 3.03335C19.5 3.14827 19.5457 3.25849 19.6269 3.33976C19.7082 3.42102 19.8184 3.46668 19.9333 3.46668C20.1632 3.46616 20.3838 3.55697 20.5467 3.71914C20.7096 3.88131 20.8014 4.10154 20.802 4.3314C20.8025 4.56125 20.7117 4.7819 20.5495 4.94479C20.3873 5.10769 20.1671 5.19949 19.9372 5.20001C19.8316 5.18518 19.7242 5.20983 19.6356 5.26923C19.547 5.32864 19.4835 5.41863 19.4571 5.52198C19.4018 5.7397 19.2909 5.93933 19.1352 6.10132C18.9796 6.26331 18.7846 6.38212 18.5692 6.44611C18.3539 6.5101 18.1256 6.51708 17.9068 6.46637C17.6879 6.41566 17.486 6.30899 17.3208 6.15681C17.2778 6.11687 17.2272 6.08606 17.172 6.06625C17.1168 6.04644 17.0582 6.03803 16.9997 6.04155C16.9415 6.04539 16.8846 6.06087 16.8325 6.08707C16.7804 6.11327 16.7341 6.14966 16.6963 6.19408C16.6054 6.30124 16.4897 6.38466 16.3593 6.43716C16.2289 6.48965 16.0877 6.50963 15.9478 6.49539C15.808 6.48115 15.6737 6.4331 15.5566 6.35539C15.4394 6.27768 15.3429 6.17265 15.2754 6.04935C15.2383 5.98154 15.1838 5.92489 15.1174 5.88527C15.051 5.84565 14.9753 5.8245 14.898 5.82401H14.8937C14.8168 5.82407 14.7413 5.84456 14.675 5.8834C14.6087 5.92224 14.5539 5.97801 14.5162 6.04501C14.3653 6.31466 14.1452 6.5392 13.8786 6.69549C13.612 6.85178 13.3086 6.93416 12.9996 6.93416C12.6905 6.93416 12.3871 6.85178 12.1205 6.69549C11.8539 6.5392 11.6338 6.31466 11.4829 6.04501C11.4452 5.97801 11.3904 5.92224 11.3241 5.8834C11.2578 5.84456 11.1823 5.82407 11.1055 5.82401H11.1037ZM13 7.80001C13.3553 7.7992 13.7066 7.72546 14.0322 7.58335C14.3477 9.31408 15.0466 10.2592 15.59 10.7497L15.4063 11.1172L14.4192 10.6253C14.2238 10.5285 13.9992 10.5086 13.7898 10.5695C13.5804 10.6304 13.4016 10.7677 13.2886 10.9542L12.48 12.3015L10.8333 10.6548C10.7772 10.6007 10.7141 10.5544 10.6457 10.517C11.3596 9.68769 11.8193 8.67022 11.97 7.58638C12.2951 7.72722 12.6457 7.79992 13 7.80001ZM13 25.1333C5.4028 25.1333 0.866667 21.5692 0.866667 15.6C0.867983 14.7232 0.977727 13.8499 1.1934 13H1.95L2.99 14.3867C3.07091 14.4941 3.17563 14.5813 3.29593 14.6415C3.41623 14.7016 3.54884 14.7331 3.68333 14.7333H4.52617C4.67347 14.734 4.81848 14.6969 4.94742 14.6257C5.07635 14.5545 5.18494 14.4515 5.26283 14.3264L7.17383 11.2667H10.2206L11.8673 12.9133C11.9604 13.0064 12.0736 13.0771 12.1981 13.1199C12.3226 13.1627 12.4553 13.1766 12.586 13.1605C12.7167 13.1444 12.842 13.0987 12.9524 13.0269C13.0628 12.955 13.1554 12.859 13.2232 12.7461L14.0309 11.3997L15.0176 11.8928C15.1194 11.9438 15.2302 11.9742 15.3438 11.9823C15.4573 11.9904 15.5714 11.9761 15.6794 11.9401C15.7874 11.9041 15.8873 11.8472 15.9733 11.7726C16.0593 11.6981 16.1298 11.6073 16.1807 11.5054L16.7345 10.4H18.8548L21.4548 13.7449C21.5302 13.842 21.6253 13.9218 21.734 13.9793C21.8426 14.0368 21.9622 14.0704 22.0848 14.0781C22.2073 14.0841 22.3298 14.0648 22.4445 14.0214C22.5592 13.978 22.6638 13.9115 22.7517 13.8259L23.5794 13L24.8057 12.9957C25.0218 13.847 25.1319 14.7217 25.1333 15.6C25.1333 21.5692 20.5972 25.1333 13 25.1333Z" fill="white"/>
<path d="M11.2667 15.6C11.2667 14.1661 10.2947 13 9.10002 13C7.90532 13 6.93335 14.1661 6.93335 15.6C6.93335 17.0339 7.90532 18.2 9.10002 18.2C10.2947 18.2 11.2667 17.0339 11.2667 15.6ZM7.80002 15.6C7.80002 14.6441 8.38328 13.8667 9.10002 13.8667C9.81675 13.8667 10.4 14.6441 10.4 15.6C10.4 16.5559 9.81675 17.3333 9.10002 17.3333C8.38328 17.3333 7.80002 16.5559 7.80002 15.6Z" fill="white"/>
<path d="M16.8999 13C15.7052 13 14.7333 14.1661 14.7333 15.6C14.7333 17.0339 15.7052 18.2 16.8999 18.2C18.0946 18.2 19.0666 17.0339 19.0666 15.6C19.0666 14.1661 18.0946 13 16.8999 13ZM16.8999 17.3333C16.1832 17.3333 15.5999 16.5559 15.5999 15.6C15.5999 14.6441 16.1832 13.8667 16.8999 13.8667C17.6167 13.8667 18.1999 14.6441 18.1999 15.6C18.1999 16.5559 17.6167 17.3333 16.8999 17.3333Z" fill="white"/>
<path d="M13 18.6333C12.1993 18.606 11.4016 18.7463 10.6582 19.0453C9.91483 19.3442 9.24211 19.7952 8.68317 20.3693C8.4919 20.5779 8.35504 20.8305 8.28474 21.1046C8.21445 21.3788 8.21288 21.6661 8.28017 21.941C8.35409 22.2978 8.54732 22.6188 8.82805 22.851C9.10878 23.0833 9.46025 23.2131 9.82458 23.2189C9.90702 23.2189 9.98933 23.2122 10.0707 23.1989C12.0113 22.8908 13.9883 22.8908 15.9289 23.1989C16.3315 23.2579 16.7413 23.1605 17.0744 22.9269C17.4074 22.6932 17.6384 22.3409 17.7199 21.9423C17.7871 21.6673 17.7855 21.38 17.7152 21.1058C17.6449 20.8315 17.5081 20.5789 17.3169 20.3701C16.758 19.796 16.0852 19.345 15.3419 19.0459C14.5985 18.7468 13.8009 18.6063 13 18.6333ZM16.8758 21.7442C16.8427 21.9287 16.7404 22.0934 16.5897 22.2048C16.439 22.3162 16.2514 22.3656 16.0654 22.3431C14.0345 22.0194 11.9651 22.0194 9.93421 22.3431C9.74834 22.3648 9.5612 22.3149 9.41079 22.2036C9.26037 22.0923 9.15794 21.9279 9.12431 21.7438C9.09047 21.6075 9.09026 21.465 9.1237 21.3286C9.15714 21.1922 9.22323 21.066 9.31628 20.9608C9.79448 20.4739 10.3693 20.0924 11.0037 19.8408C11.6381 19.5892 12.3181 19.4731 13 19.5C13.6819 19.4734 14.3618 19.5896 14.9961 19.8412C15.6304 20.0927 16.2051 20.4741 16.6834 20.9608C16.7766 21.066 16.8428 21.1923 16.8763 21.3288C16.9098 21.4653 16.9096 21.6078 16.8758 21.7442Z" fill="white"/>
<path d="M1.7095 7.19595L0.718468 8.13715C0.547316 8.29794 0.445492 8.51905 0.434572 8.75363C0.423652 8.98821 0.504494 9.21782 0.659968 9.39382L2.0202 10.9434C2.1104 11.0456 2.2214 11.1273 2.34577 11.183C2.47013 11.2388 2.60498 11.2673 2.74127 11.2667C2.79174 11.2666 2.84214 11.2628 2.89207 11.2554C3.04606 11.2334 3.19198 11.1728 3.31624 11.0793C3.4405 10.9857 3.53906 10.8622 3.60273 10.7203C3.86298 10.1591 3.9544 9.53432 3.86584 8.9221C3.77728 8.30989 3.51257 7.73664 3.10397 7.27222C3.02181 7.17315 2.9201 7.09208 2.80521 7.03408C2.69032 6.97607 2.5647 6.94237 2.4362 6.93509C2.30365 6.92633 2.17072 6.94498 2.04569 6.98986C1.92066 7.03474 1.80622 7.1049 1.7095 7.19595ZM2.8106 10.3701C2.8015 10.3909 2.7729 10.397 2.7612 10.3987C2.74522 10.4015 2.72882 10.4004 2.71332 10.3957C2.69781 10.391 2.68364 10.3826 2.67193 10.3714L1.31127 8.82095C1.30771 8.81721 1.30499 8.81275 1.30326 8.80788C1.30154 8.80301 1.30086 8.79784 1.30127 8.79269C1.30168 8.78754 1.30317 8.78253 1.30564 8.778C1.3081 8.77346 1.3115 8.76949 1.3156 8.76635L2.30707 7.82515C2.32552 7.80866 2.34949 7.79969 2.37423 7.80002C2.38495 7.79904 2.39574 7.80044 2.40585 7.80411C2.41596 7.80778 2.42514 7.81363 2.43273 7.82125C2.73968 8.16171 2.93927 8.5852 3.00649 9.03864C3.07371 9.49207 3.00557 9.95526 2.8106 10.3701Z" fill="white"/>
<path d="M0.866667 5.10463C0.92487 5.10492 0.98295 5.09926 1.04 5.08773L2.34 4.82773C2.5355 4.78724 2.71111 4.68073 2.83736 4.52607C2.96361 4.37142 3.03281 4.17804 3.03333 3.97839V3.03329C3.03333 2.80344 2.94202 2.583 2.77949 2.42047C2.61696 2.25794 2.39652 2.16663 2.16667 2.16663H0.866667C0.636812 2.16663 0.416372 2.25794 0.253841 2.42047C0.0913093 2.583 0 2.80344 0 3.03329L0 4.23796C0 4.46781 0.0913093 4.68825 0.253841 4.85079C0.416372 5.01332 0.636812 5.10463 0.866667 5.10463ZM0.866667 3.03329H2.16667V3.97796L0.866667 4.23796V3.03329Z" fill="white"/>
<path d="M22.7778 11.261C22.8104 11.2648 22.8433 11.2667 22.8761 11.2667C23.1054 11.2666 23.3254 11.1765 23.4889 11.0158L25.3089 9.22177C25.3909 9.14081 25.4559 9.0443 25.5002 8.9379C25.5445 8.8315 25.5671 8.71734 25.5667 8.6021C25.5673 8.48953 25.5456 8.37795 25.5029 8.27381C25.4601 8.16968 25.3971 8.07506 25.3175 7.99543L24.0973 6.75826C23.9352 6.59726 23.7163 6.50636 23.4878 6.50514C23.2593 6.50392 23.0395 6.59249 22.8757 6.75177L22.5637 7.05943C22.0639 7.55261 21.7509 8.20414 21.6783 8.90258C21.6058 9.60101 21.7781 10.303 22.1659 10.8884C22.2339 10.992 22.324 11.0792 22.4298 11.1437C22.5357 11.2081 22.6545 11.2482 22.7778 11.261ZM23.1725 7.67477L23.4824 7.36667L24.7 8.60037C24.7008 8.60231 24.7008 8.60448 24.7 8.60643L22.8922 10.4104C22.6142 9.99272 22.4902 9.49136 22.5413 8.99226C22.5925 8.49316 22.8156 8.02738 23.1725 7.67477Z" fill="white"/>
<path d="M25.3067 1.98463L23.6058 1.74153C23.4694 1.72188 23.3302 1.73746 23.2015 1.78678C23.0728 1.8361 22.9588 1.91753 22.8704 2.02332C22.7821 2.1291 22.7222 2.25574 22.6966 2.39118C22.671 2.52662 22.6804 2.66636 22.724 2.79713L23.1963 4.21456C23.2501 4.37543 23.3531 4.5153 23.4907 4.61439C23.6284 4.71347 23.7937 4.76673 23.9633 4.76663H25.1923C25.4064 4.76617 25.6117 4.68086 25.7631 4.52939C25.9145 4.37791 25.9997 4.17262 26 3.95846V2.78456C25.9993 2.59032 25.9289 2.40278 25.8017 2.256C25.6745 2.10922 25.4988 2.01294 25.3067 1.98463ZM25.1333 3.89996H24.0067L23.5777 2.61253L25.1333 2.83569V3.89996Z" fill="white"/>
</g>
<defs>
<clipPath id="clip0_391_301">
<rect width="26" height="26" fill="white"/>
</clipPath>
</defs>
</svg>
