<svg width="24" height="25" viewBox="0 0 24 25" fill="none" xmlns="http://www.w3.org/2000/svg">
<path d="M23.6496 12.7673C23.6496 11.778 23.5693 11.056 23.3955 10.3074H12.0984V14.7727H18.7296C18.5959 15.8824 17.874 17.5536 16.2696 18.6765L16.2471 18.826L19.8191 21.5932L20.0665 21.6179C22.3393 19.5189 23.6496 16.4305 23.6496 12.7673Z" fill="#4285F4"/>
<path d="M12.0984 24.5323C15.3471 24.5323 18.0744 23.4627 20.0665 21.6178L16.2696 18.6765C15.2536 19.3851 13.8899 19.8797 12.0984 19.8797C8.9165 19.8797 6.2159 17.7808 5.25321 14.8796L5.1121 14.8916L1.39794 17.766L1.34937 17.9011C3.32802 21.8316 7.39232 24.5323 12.0984 24.5323Z" fill="#34A853"/>
<path d="M5.25319 14.8796C4.99918 14.1309 4.85217 13.3287 4.85217 12.4999C4.85217 11.6709 4.99918 10.8688 5.23983 10.1201L5.2331 9.96064L1.47239 7.04004L1.34935 7.09857C0.533852 8.72965 0.065918 10.5613 0.065918 12.4999C0.065918 14.4384 0.533852 16.27 1.34935 17.9011L5.25319 14.8796Z" fill="#FBBC05"/>
<path d="M12.0986 5.12005C14.358 5.12005 15.8821 6.09601 16.7512 6.9116L20.147 3.59597C18.0614 1.65741 15.3474 0.467529 12.0986 0.467529C7.39257 0.467529 3.32826 3.16813 1.34961 7.0987L5.24009 10.1202C6.21614 7.21907 8.91674 5.12005 12.0986 5.12005Z" fill="#EB4335"/>
</svg>
