<svg width="23" height="22" viewBox="0 0 23 22" fill="none" xmlns="http://www.w3.org/2000/svg">
<path d="M21.2247 7.50594L13.6325 0.819133C12.5479 -0.265457 10.7821 -0.265456 9.74235 0.774315L2.06059 7.55076C1.31662 8.29473 0.904297 9.28969 0.904297 10.3474V19.302C0.904297 20.7899 2.11438 22 3.60232 22H19.7367C21.2157 22 22.4258 20.7899 22.4258 19.302V10.3474C22.4258 9.28969 22.0135 8.29473 21.2247 7.50594ZM20.6331 19.302C20.6331 19.8039 20.2297 20.2073 19.7367 20.2073H14.0538V14.4348C14.0538 13.9149 13.6415 13.5026 13.1216 13.5026H10.2085C9.69754 13.5026 9.27625 13.9149 9.27625 14.4348V20.2073H3.60232C3.10037 20.2073 2.69701 19.8039 2.69701 19.302V10.3474C2.69701 9.78268 2.93006 9.21798 3.2886 8.85047L10.9704 2.08299C11.1586 1.89476 11.4006 1.79616 11.6516 1.79616C11.9205 1.79616 12.1894 1.90372 12.4045 2.11885L19.9967 8.81462C20.409 9.22694 20.6331 9.77372 20.6331 10.3474V19.302Z" fill="white"/>
</svg>
