<svg width="24" height="24" viewBox="0 0 24 24" fill="none" xmlns="http://www.w3.org/2000/svg">
<g clip-path="url(#clip0_397_1872)">
<path fill-rule="evenodd" clip-rule="evenodd" d="M17.3536 4.35349L4.35355 17.3535L3.64645 16.6464L16.6464 3.64639L17.3536 4.35349Z" fill="#98A1BD"/>
<path fill-rule="evenodd" clip-rule="evenodd" d="M13.9764 2.13349C13.8017 1.95876 13.5082 1.95876 13.3335 2.13349L2.13349 13.3335C1.95876 13.5082 1.95876 13.8017 2.13349 13.9764L10.0235 21.8664C10.1982 22.0411 10.4917 22.0411 10.6664 21.8664L21.8664 10.6664C22.038 10.4948 22.0452 10.2093 21.8636 10.0207L13.9764 2.13349ZM12.6264 1.42639C13.1917 0.861126 14.1182 0.861126 14.6835 1.42639L22.5782 9.3211C23.1347 9.8926 23.1413 10.8057 22.5735 11.3735L11.3735 22.5735C10.8082 23.1388 9.88165 23.1388 9.31639 22.5735L1.42639 14.6835C0.861126 14.1182 0.861126 13.1917 1.42639 12.6264L12.6264 1.42639Z" fill="#98A1BD"/>
<path fill-rule="evenodd" clip-rule="evenodd" d="M17.3536 4.35349L4.35355 17.3535L3.64645 16.6464L16.6464 3.64639L17.3536 4.35349Z" stroke="#98A1BD" stroke-width="0.5" stroke-miterlimit="10"/>
<path fill-rule="evenodd" clip-rule="evenodd" d="M13.9764 2.13349C13.8017 1.95876 13.5082 1.95876 13.3335 2.13349L2.13349 13.3335C1.95876 13.5082 1.95876 13.8017 2.13349 13.9764L10.0235 21.8664C10.1982 22.0411 10.4917 22.0411 10.6664 21.8664L21.8664 10.6664C22.038 10.4948 22.0452 10.2093 21.8636 10.0207L13.9764 2.13349ZM12.6264 1.42639C13.1917 0.861126 14.1182 0.861126 14.6835 1.42639L22.5782 9.3211C23.1347 9.8926 23.1413 10.8057 22.5735 11.3735L11.3735 22.5735C10.8082 23.1388 9.88165 23.1388 9.31639 22.5735L1.42639 14.6835C0.861126 14.1182 0.861126 13.1917 1.42639 12.6264L12.6264 1.42639Z" stroke="#98A1BD" stroke-width="0.5" stroke-miterlimit="10"/>
</g>
<defs>
<clipPath id="clip0_397_1872">
<rect width="24" height="24" fill="white"/>
</clipPath>
</defs>
</svg>
