<svg width="504" height="276" viewBox="0 0 504 276" fill="none" xmlns="http://www.w3.org/2000/svg">
<path fill-rule="evenodd" clip-rule="evenodd" d="M49.4936 118.169C20.3809 130.713 1.01032e-05 159.665 7.15593e-06 193.378C3.20382e-06 238.585 36.6474 275.232 81.8543 275.232C109.328 275.232 133.64 261.697 148.486 240.931C153.489 242.352 158.769 243.112 164.227 243.112C184.204 243.112 201.802 232.925 212.109 217.463C219.676 225.593 230.472 230.679 242.454 230.679C258.654 230.679 272.682 221.385 279.499 207.839C290.834 214.455 304.02 218.245 318.092 218.245C343.762 218.245 366.486 205.63 380.402 186.262C384.975 187.523 389.792 188.197 394.766 188.197C403.221 188.197 411.221 186.25 418.342 182.779C426.19 196.537 440.997 205.812 457.97 205.812C483.148 205.812 503.559 185.4 503.559 160.222C503.559 136.913 486.067 117.69 463.494 114.963L463.494 -6.45378e-05L49.4936 -0.000100731L49.4936 118.169ZM215.04 158.15L214.766 158.15C214.796 158.204 214.825 158.259 214.855 158.314C214.917 158.259 214.978 158.204 215.04 158.15Z" fill="#1F265E"/>
<circle cx="123.552" cy="59.63" r="25.37" fill="#D3D4DE"/>
<circle cx="140.773" cy="50.2545" r="25.37" fill="#1F265E"/>
<path d="M74.9673 93.9293C74.9673 93.9293 76.3392 101.063 82.488 99.4477C82.488 99.4477 77.3296 103.399 79.3105 108.07C79.3105 108.07 76.9589 102.784 71.668 103.044C71.668 103.044 76.2174 101.556 74.9673 93.9293Z" fill="#FCFCFC"/>
<path d="M75.1896 154.167C75.1896 154.167 76.1292 159.053 80.3407 157.946C80.3407 157.946 76.8076 160.653 78.1644 163.852C78.1644 163.852 76.5537 160.232 72.9299 160.41C72.9299 160.41 76.0458 159.39 75.1896 154.167Z" fill="#6D75B0"/>
<path d="M435.577 92.1837C435.577 92.1837 431.369 94.335 433.494 97.8835C433.494 97.8835 430.089 95.3774 427.53 97.4624C427.53 97.4624 430.406 95.0344 429.284 91.7759C429.284 91.7759 431.039 94.3482 435.577 92.1837Z" fill="white"/>
</svg>
